<svg width="24" height="24" viewBox="0 0 24 24" fill="none" xmlns="http://www.w3.org/2000/svg">
<path d="M11.3404 1.0215C11.592 0.573722 12.2366 0.573722 12.4882 1.0215L15.8848 7.06759C15.9788 7.23494 16.1412 7.35291 16.3294 7.39061L23.1292 8.75266C23.6328 8.85353 23.832 9.46661 23.4839 9.84422L18.7833 14.943C18.6532 15.0841 18.5912 15.275 18.6135 15.4656L19.4194 22.3535C19.479 22.8636 18.9575 23.2425 18.4908 23.0281L12.1891 20.1332C12.0147 20.0531 11.814 20.0531 11.6395 20.1332L5.33779 23.0281C4.87108 23.2425 4.34957 22.8636 4.40925 22.3535L5.21512 15.4656C5.23742 15.275 5.1754 15.0841 5.0453 14.943L0.344741 9.84422C-0.00338542 9.46661 0.195814 8.85353 0.699412 8.75266L7.49921 7.39061C7.68741 7.35291 7.84979 7.23494 7.9438 7.06759L11.3404 1.0215Z" fill="#6100FF"/>
</svg>
